<svg width="1200" height="630" viewBox="0 0 1200 630" fill="none" xmlns="http://www.w3.org/2000/svg">
  <!-- Background -->
  <rect width="1200" height="630" fill="#0f172a"/>
  
  <!-- Gradient overlay -->
  <defs>
    <linearGradient id="grad1" x1="0%" y1="0%" x2="100%" y2="100%">
      <stop offset="0%" style="stop-color:#1e293b;stop-opacity:1" />
      <stop offset="100%" style="stop-color:#0f172a;stop-opacity:1" />
    </linearGradient>
    <linearGradient id="textGrad" x1="0%" y1="0%" x2="100%" y2="0%">
      <stop offset="0%" style="stop-color:#10b981" />
      <stop offset="100%" style="stop-color:#6366f1" />
    </linearGradient>
  </defs>
  <rect width="1200" height="630" fill="url(#grad1)"/>
  
  <!-- Decorative elements -->
  <circle cx="100" cy="100" r="200" fill="#10b981" opacity="0.05"/>
  <circle cx="1100" cy="530" r="250" fill="#6366f1" opacity="0.05"/>
  
  <!-- Logo hexagon -->
  <g transform="translate(540, 140)">
    <polygon points="60,10 110,35 110,85 60,110 10,85 10,35" fill="none" stroke="#10b981" stroke-width="3"/>
    <circle cx="60" cy="10" r="6" fill="#10b981"/>
    <circle cx="110" cy="35" r="6" fill="#6366f1"/>
    <circle cx="110" cy="85" r="6" fill="#10b981"/>
    <circle cx="60" cy="110" r="6" fill="#6366f1"/>
    <circle cx="10" cy="85" r="6" fill="#10b981"/>
    <circle cx="10" cy="35" r="6" fill="#6366f1"/>
    <text x="60" y="58" text-anchor="middle" fill="#ffffff" font-family="Arial, sans-serif" font-size="24" font-weight="bold">WP</text>
    <text x="60" y="78" text-anchor="middle" fill="#10b981" font-family="Arial, sans-serif" font-size="14" font-weight="600">NODE</text>
  </g>
  
  <!-- Main title -->
  <text x="600" y="340" text-anchor="middle" fill="#ffffff" font-family="Arial, sans-serif" font-size="56" font-weight="bold">WordPress Node</text>
  
  <!-- Subtitle -->
  <text x="600" y="400" text-anchor="middle" fill="#94a3b8" font-family="Arial, sans-serif" font-size="28">Modern CMS Built with Node.js</text>
  
  <!-- Features -->
  <text x="600" y="480" text-anchor="middle" fill="#10b981" font-family="Arial, sans-serif" font-size="20">🚀 Fast • 🔒 Secure • 🎨 Customizable • 📱 Mobile Ready</text>
  
  <!-- URL -->
  <text x="600" y="560" text-anchor="middle" fill="#64748b" font-family="Arial, sans-serif" font-size="18">wordpressnode.co.uk</text>
  
  <!-- Border -->
  <rect x="20" y="20" width="1160" height="590" fill="none" stroke="#1e293b" stroke-width="2" rx="20"/>
</svg>

